<svg width="2134" height="2007" viewBox="0 0 2134 2007" fill="none" xmlns="http://www.w3.org/2000/svg">
<path d="M920.667 2.66652C883.333 7.73319 855.467 25.1999 842.133 51.8665C839.733 56.6665 834.933 67.1999 831.6 75.3332C814.933 115.467 792.8 168.267 789.6 175.867C787.467 180.933 784.667 185.2 782.667 186.4C757.867 201.467 745.733 215.2 737.6 237.6L734 247.333V310C734 367.733 734.133 373.2 736.533 380C744.267 402.8 759.733 421.467 779.467 431.733L790.4 437.333L788.667 442.267C781.733 462.533 787.2 485.867 802.267 500.133C810.533 508 817.467 511.333 829.333 513.2C840.4 515.067 897.333 515.067 906.667 513.333C923.467 510.133 937.067 499.867 944.667 484.667C948.533 477.067 948.667 475.867 948.667 459.6V442.667H1054H1159.33V459.6C1159.33 475.2 1159.6 477.333 1162.8 484.133C1169.87 499.067 1182.67 509.333 1198.13 512.667C1211.07 515.467 1268.93 515.467 1281.87 512.667C1297.33 509.333 1310.27 498.933 1317.07 484.133C1322.67 472 1322.53 449.333 1316.8 436C1316.27 434.533 1317.87 432.933 1322.67 430.267C1332 425.067 1344.67 412.933 1351.6 402.667C1354.93 397.6 1359.2 388.667 1361.6 381.333L1365.87 368.667L1366.4 318.267C1366.93 263.867 1366 251.067 1360.8 236.533C1354.4 218.933 1342.67 203.6 1328.27 194C1319.2 188 1323.2 195.6 1285.33 111.333C1261.2 57.7332 1256.8 48.7999 1250 39.9999C1237.2 23.3332 1219.07 11.4665 1197.73 5.59985L1184.67 2.13318L1056.67 1.86652C986.267 1.73318 925.067 2.13318 920.667 2.66652ZM1176.67 37.3332C1197.07 40.2665 1212 47.9999 1221.6 60.6665C1226.93 67.7332 1228.27 69.9999 1237.73 91.3332C1244.8 107.067 1259.6 139.867 1269.2 160.933C1272.93 169.2 1276 176.533 1276 177.333C1276 178.267 1204.4 178.667 1052 178.667C855.867 178.667 828 178.4 828 176.667C828 175.6 830.4 169.2 833.2 162.4C836.133 155.6 841.733 142.133 845.733 132.667C849.6 123.067 857.6 104 863.333 90.2665C874.533 63.5999 878.667 57.0665 890 49.3332C897.333 44.2665 913.467 38.9332 925.733 37.4665C939.733 35.8665 1165.33 35.7332 1176.67 37.3332ZM1300.13 218.267C1311.2 223.733 1320.53 233.067 1325.87 244L1330 252.667V310.133V367.467L1324.93 377.6C1319.2 389.2 1311.87 396.533 1300.13 402.267L1292.67 406L1052.8 406.4C786.267 406.8 805.2 407.333 791.067 397.867C782.667 392.133 775.733 383.333 771.733 373.467C768.667 366.133 768.667 365.2 768.667 310C768.667 254.667 768.667 253.867 771.733 246.4C777.333 232.533 790.533 220.667 805.333 215.867C812.267 213.6 826 213.467 1052 213.733L1291.33 214L1300.13 218.267ZM907.6 450C912.133 454.533 912.267 455.067 911.733 462.267C911.2 468.4 910.4 470.4 907.467 472.933C903.867 476 903.6 476 867.2 476H830.533L827.333 472.533C824.533 469.6 824 467.6 824 461.067C824 454.133 824.4 452.667 827.867 449.2L831.733 445.333H867.333H902.933L907.6 450ZM1279.47 448.4C1282.53 451.067 1283.2 452.933 1283.73 459.733C1284.27 467.467 1284.13 468.133 1280.27 472L1276.27 476H1240H1203.73L1199.73 472C1195.87 468.133 1195.73 467.467 1196.27 459.733C1196.8 452.933 1197.47 451.067 1200.53 448.4C1204.13 445.333 1204.27 445.333 1240 445.333C1275.73 445.333 1275.87 445.333 1279.47 448.4Z" fill="#D8DDDF"/>
<path d="M823.333 274.933C822.933 276.667 822.8 287.333 822.933 298.667L823.333 319.333L891.067 319.733L958.667 320V296V272H891.333H824L823.333 274.933Z" fill="#D8DDDF"/>
<path d="M1148 296V320H1216H1284V296V272H1216H1148V296Z" fill="#D8DDDF"/>
<path d="M543.2 157.867C538.667 158.934 529.467 162.267 522.8 165.467L510.667 171.067V363.2V555.467L515.2 577.467C517.733 589.467 522.267 611.067 525.333 625.334C530.4 649.467 532.8 660.4 543.867 713.334C550.667 745.867 558.267 781.867 564.667 812C568.133 827.734 571.467 844.4 572.267 848.8C574 858 575.867 852 555.067 905.334C535.733 955.2 530.4 969.467 530.933 970C532.133 971.2 577.333 983.2 577.867 982.534C578.133 982.267 584.133 966.934 591.333 948.667C598.4 930.267 605.2 912.667 606.667 909.334C608 906 612.667 893.734 617.2 882L625.333 860.667L621.333 841.334C619.2 830.667 614.667 809.067 611.333 793.334C607.867 777.6 603.467 756.267 601.333 746C599.2 735.734 594.667 714.4 591.333 698.667C588 682.934 583.467 661.6 581.333 651.334C579.2 641.067 575.867 625.2 574 616C572.133 606.8 568.533 590 566 578.534L561.333 557.734V382.267C561.333 285.6 561.867 206.667 562.4 206.667C563.067 206.667 566 208.4 568.933 210.534C574.667 214.667 581.6 224.534 584.4 232.667C588 242.8 599.467 300.4 621.333 416.667C624.4 432.8 628.533 454.934 630.667 466C632.8 476.934 637.6 501.867 641.333 521.334C645.067 540.8 649.6 563.6 651.333 572C653.067 580.4 655.2 590.8 656 594.934C657.467 602 658.533 603.6 673.2 619.6C681.867 628.934 705.067 653.2 724.933 673.334C744.667 693.467 768.267 718.134 777.333 728C786.267 737.867 794.133 746.134 794.533 746.4C795.067 746.534 801.2 740.267 808.267 732.4C846.133 689.867 882.667 658.8 909.867 645.867C922.133 640 936.933 636.8 947.333 637.867C956 638.667 968 642.267 968 644C968 644.667 964.8 648.934 960.933 653.6C935.333 683.734 914 718 893.333 762.267L883.2 783.867L871.467 793.6C865.067 798.934 851.467 810.267 841.467 818.667C831.467 827.067 804.8 849.334 782.267 868L741.333 902L738.133 916.667C736.267 924.667 732.4 942.667 729.333 956.667C717.467 1012 714.4 1026.53 711.2 1040.67C704.933 1069.33 700.133 1093.87 700.8 1094.53C701.2 1094.93 712 1097.47 724.8 1100.13L748 1104.93L749.2 1100.13C749.867 1097.47 750.8 1093.2 751.333 1090.67C751.733 1088.13 754.133 1076.67 756.667 1065.33C759.067 1054 763.6 1032.93 766.667 1018.67C769.733 1004.4 774.267 983.334 776.667 972C779.2 960.667 782.267 946.4 783.467 940.4L785.733 929.467L808.533 910.4C821.067 899.867 834 889.2 837.333 886.534C840.667 883.734 857.467 869.867 874.667 855.467C891.867 840.934 910.267 825.734 915.333 821.467C922.933 815.067 925.333 812.134 927.867 805.867C933.2 792.934 951.067 756 957.2 745.334C977.467 710.134 990.667 693.067 1018.53 665.2L1039.47 644.4L1026 629.334C1010.53 611.867 1001.87 604.667 988 597.467C972.4 589.467 963.2 587.334 944.667 587.467C932.133 587.467 926.267 588.134 917.333 590.534C883.6 599.867 850.667 620.8 810.933 658.267L794.4 673.734L787.067 665.867C782.933 661.6 766.667 644.8 750.8 628.667C734.933 612.534 717.733 594.8 712.533 589.334L703.067 579.334L692.267 524C681.6 469.067 677.333 446.4 666.667 390C657.067 339.067 640 251.867 637.067 238.667C630.667 209.734 620.667 190.534 604 175.2C587.733 160.267 563.333 153.334 543.2 157.867Z" fill="#D8DDDF"/>
<path d="M1540.53 157.867C1514 163.867 1491.47 185.867 1480.27 216.667C1478.13 222.533 1472.93 244.533 1468.8 266C1464.53 287.2 1459.47 313.333 1457.33 324C1455.2 334.667 1451.07 356.533 1448 372.667C1444.93 388.8 1440.53 412.533 1438 425.333C1435.47 438.133 1430.67 463.333 1427.33 481.333C1423.87 499.333 1418.27 528.533 1414.67 546.4L1408.27 578.667L1402.27 585.733C1398.93 589.467 1378.27 610.933 1356.27 633.333L1316.4 674L1302.53 660.4C1231.87 591.067 1166.93 570.133 1117.33 600.667C1104.67 608.533 1099.47 613.2 1084.27 630.533L1072 644.667L1089.73 662C1116.13 687.6 1128.93 703.733 1147.33 734C1155.87 748 1177.6 791.067 1184 806.667C1186.8 813.733 1189.07 815.733 1256 871.333L1324.93 928.667L1327.73 940.667C1329.33 947.2 1331.33 956 1332.13 960C1332.8 964 1335.6 976.667 1338 988C1340.53 999.333 1345.07 1020.4 1348.13 1034.67C1355.87 1070.8 1362.4 1100.13 1362.93 1100.67C1363.2 1100.8 1374 1098.93 1387.07 1096.27L1410.67 1091.6L1409.87 1086.8C1409.47 1084.13 1406.67 1071.2 1403.87 1058C1396.67 1025.07 1390.27 995.333 1384.8 970C1382.27 958.267 1377.87 938.267 1375.2 925.467L1370.13 902.267L1351.33 886.667C1341.07 878 1309.07 851.333 1280.27 827.333L1228 783.733L1223.73 774.267C1203.87 729.867 1181.2 691.867 1156.4 660.933L1142.53 643.867L1148.53 641.333C1184.13 625.467 1238.8 658.667 1308.67 738.667C1312.27 742.667 1315.73 746.133 1316.53 746.267C1317.33 746.4 1323.6 740.133 1330.53 732.267C1346.27 714.4 1357.47 702.667 1399.33 660C1417.6 641.333 1437.47 620.533 1443.33 614L1454.13 602L1461.73 562.667C1466 541.067 1471.2 514.667 1473.33 504C1476.93 486 1482.13 458.4 1494 395.333C1509.73 311.467 1523.6 242.667 1526.13 234.933C1529.2 225.867 1531.47 221.867 1536.93 215.867C1541.2 211.2 1547.6 206.667 1550 206.667C1550.4 206.667 1550.67 284.933 1550.67 380.533V554.267L1546.8 572.133C1544.67 582 1540.4 602 1537.33 616.667C1534.27 631.333 1529.73 652.667 1527.33 664C1524.93 675.333 1520.4 696.667 1517.33 711.333C1514.27 726 1509.47 749.067 1506.53 762.667C1503.73 776.267 1499.2 797.467 1496.53 810C1493.87 822.4 1490.4 838.933 1488.8 846.533L1485.87 860.4L1497.07 889.2C1508.53 918.933 1514 933.2 1524.53 960.667C1528 969.467 1531.2 977.067 1531.73 977.467C1533.2 978.8 1578.67 966.267 1578.67 964.533C1578.67 963.6 1569.33 939.2 1558 910L1537.47 857.067L1540 844.133C1541.33 837.067 1545.33 818.4 1548.67 802.667C1552 786.933 1556.53 765.6 1558.67 755.333C1560.8 745.067 1565.33 723.733 1568.67 708C1572 692.267 1576.8 669.467 1579.33 657.333C1583.6 636.8 1588.27 614.4 1596.53 575.333L1600 559.333V364.933V170.533L1591.07 166.533C1569.87 156.933 1555.6 154.533 1540.53 157.867Z" fill="#D8DDDF"/>
<path d="M1632.13 1329.07C1583.47 1329.47 1585.07 1329.07 1582.93 1339.47C1581.6 1345.6 1582.4 1351.87 1585.07 1356.8C1585.87 1358.4 1604.4 1374.8 1626.13 1393.47C1648 1412.13 1677.33 1437.2 1691.33 1449.33C1705.47 1461.47 1726.8 1479.73 1738.8 1490C1777.2 1522.67 1788.13 1532.27 1787.73 1532.67C1772.93 1545.33 1685.33 1620 1670.8 1632.4C1659.6 1642.13 1649.33 1650.93 1648 1652C1646.67 1653.07 1636.67 1661.47 1625.87 1670.67C1591.2 1699.73 1582.53 1710.13 1582.4 1723.47C1582.27 1728.27 1582.93 1730.27 1585.87 1733.07L1589.33 1736.67H1632.4C1674.67 1736.67 1675.47 1736.67 1683.33 1733.47C1687.73 1731.6 1695.2 1727.73 1700 1724.67C1704.8 1721.6 1742 1690.4 1782.67 1655.6C1823.33 1620.67 1856.93 1592 1857.33 1592C1857.73 1592 1891.33 1620.67 1932 1655.6C1972.67 1690.53 2009.87 1721.6 2014.67 1724.67C2019.47 1727.73 2027.73 1731.87 2033.07 1733.87C2042.8 1737.33 2043.07 1737.33 2082 1737.33C2103.6 1737.33 2122.67 1736.8 2124.53 1736C2132.53 1732.93 2134.67 1722.53 2129.33 1712C2123.07 1699.6 2128.53 1704.67 2021.33 1613.2C2000.4 1595.33 1970.8 1570 1955.33 1556.8C1940 1543.73 1927.2 1532.8 1926.93 1532.53C1926.67 1532.4 1953.33 1509.2 1986.27 1481.07C2019.07 1452.93 2048.67 1427.6 2052 1424.8C2055.33 1422 2073.6 1406.27 2092.67 1390C2111.73 1373.6 2128.4 1358.27 2129.87 1356C2133.2 1350.13 2133.2 1340.4 2129.87 1334.53L2127.2 1330L2081.87 1329.6C2057.07 1329.47 2034.8 1329.6 2032.53 1330C2023.07 1331.73 2020.13 1334 1895.6 1440.53C1865.47 1466.27 1858 1472.13 1856 1471.2C1853.47 1470 1849.07 1466.27 1778.67 1406C1755.47 1386.13 1731.33 1365.47 1724.93 1360C1698.8 1337.6 1689.87 1331.6 1680.67 1329.73C1677.73 1329.2 1655.87 1328.8 1632.13 1329.07Z" fill="#D8DDDF"/>
<path d="M1044.27 1377.6L1044.67 1423.33L1235.33 1424C1386.4 1424.53 1426.67 1425.07 1428.93 1426.4C1430.67 1427.33 1433.47 1430.27 1435.33 1433.07L1438.67 1438V1488.67V1539.33L1435.47 1544.13C1428.93 1553.6 1432.13 1553.33 1342.4 1553.33C1298 1553.33 1245.33 1553.73 1225.33 1554.27L1188.8 1555.07L1202.13 1567.73C1209.33 1574.67 1222.8 1587.73 1232 1596.53C1241.2 1605.47 1264.27 1627.73 1283.33 1646.13C1302.4 1664.4 1332.4 1693.33 1350 1710.4L1382 1741.33H1457.6H1533.2L1514.27 1722.93C1503.87 1712.8 1485.2 1694.67 1472.67 1682.67C1460.27 1670.67 1444.13 1654.93 1436.8 1647.87L1423.6 1635.07L1442.8 1634.27C1464.53 1633.33 1473.2 1631.47 1486.93 1624.53C1506.67 1614.67 1521.73 1599.2 1530.53 1579.73C1538.67 1562 1538.67 1561.6 1538.67 1483.6C1538.67 1436.27 1538.13 1409.87 1537.2 1405.2C1530.4 1373.73 1505.47 1346.27 1474 1335.73L1464.67 1332.67L1254.27 1332.27L1044 1332L1044.27 1377.6Z" fill="#D8DDDF"/>
<path d="M844.667 1337.2C834.267 1339.73 832.933 1341.33 801.2 1390.67C745.333 1477.47 719.6 1517.6 700.533 1547.33C689.733 1564.13 676 1585.47 670 1594.67C664 1603.87 652.933 1621.07 645.2 1632.93C637.6 1644.93 628.667 1658.8 625.333 1664C583.733 1728.53 584.133 1727.87 584 1739.33C584 1747.6 586.4 1751.47 593.867 1754.8C598.8 1757.07 603.067 1757.33 634.267 1757.33H669.333L678.133 1753.2C684.533 1750.13 688.267 1747.2 692.267 1742.27C696.933 1736.4 717.6 1705.6 748.667 1658C752.933 1651.33 766.4 1630.93 778.4 1612.67C790.4 1594.27 806 1570.67 812.933 1560C819.867 1549.33 835.467 1525.6 847.467 1507.33C859.467 1488.93 872.533 1469.07 876.4 1463.07C880.133 1456.93 883.6 1452 884 1452C884.4 1452 918.667 1502.8 960 1564.93C1082 1747.87 1074.93 1737.6 1082.4 1741.73C1094.13 1748.13 1102.93 1749.33 1138.8 1749.33H1171.47L1177.6 1745.47C1187.6 1739.07 1188.8 1730.93 1181.87 1717.07C1180.13 1713.6 1165.6 1692 1149.6 1669.07C1133.6 1646.13 1117.2 1622.53 1113.2 1616.67C1109.07 1610.8 1089.6 1582.93 1069.87 1554.67C1050.13 1526.4 1028.8 1496 1022.67 1486.93C1016.4 1478 1007.73 1465.33 1003.33 1458.93C986.133 1434.13 973.333 1415.47 952.267 1384C928.8 1348.93 920.933 1339.73 912.533 1337.47C906.8 1335.87 851.2 1335.6 844.667 1337.2Z" fill="#D8DDDF"/>
<path d="M106.667 1340.13C74.2667 1344.27 41.0667 1364.4 23.0667 1390.67C16.2667 1400.53 8.53333 1417.33 5.2 1429.33L2 1440.67V1552.67V1664.67L5.2 1676C14.9333 1711.2 37.0667 1737.87 70.5333 1754.67C76.6667 1757.73 86.8 1761.47 93.2 1763.07C104.533 1765.87 106.533 1765.87 268 1766.27C457.067 1766.8 453.733 1767.07 479.733 1754.67C505.2 1742.53 523.867 1724.4 536.4 1699.33C540.267 1691.6 546.667 1673.47 546.667 1670.27C546.667 1669.73 452.267 1669.2 337.067 1669.07C130.4 1668.67 127.2 1668.67 122 1666C119.067 1664.53 114.933 1660.67 112.667 1657.6L108.667 1651.73L108.267 1555.07L107.867 1458.4L111.2 1451.33C113.6 1446 115.867 1443.47 120.4 1440.8L126.267 1437.33H334.8C449.467 1437.33 544.133 1436.8 545.067 1436.13C546.533 1435.2 546.4 1433.2 544 1425.2C530.4 1379.87 490.133 1346 442.533 1340C429.067 1338.4 119.867 1338.4 106.667 1340.13Z" fill="#D8DDDF"/>
<path d="M470 1892.8C456.667 1897.47 448 1910.27 448 1924.93C448 1942 454.133 1948.13 479.467 1956.53C493.067 1961.07 494.667 1962.27 495.6 1968.8C496.533 1976 492.267 1981.2 484.533 1982.27C477.067 1983.2 470.4 1980.8 462.133 1974L455.067 1968.27L448.8 1978.93L442.533 1989.47L445.6 1992C460.667 2004.93 483.733 2008.8 501.2 2001.2C509.467 1997.73 518.8 1987.87 521.067 1980.27C523.067 1973.87 523.2 1960.93 521.333 1954.8C518.8 1945.6 508.267 1938.27 492 1934C481.467 1931.2 479.2 1930.13 476.533 1926C472 1919.07 478.267 1912 488.933 1912C494.133 1912 504.267 1916 505.867 1918.53C507.6 1921.33 508.933 1919.87 513.333 1910C517.6 1900.27 517.6 1899.87 515.2 1898C506.8 1891.47 481.6 1888.67 470 1892.8Z" fill="#D8DDDF"/>
<path d="M642 1892.27C625.067 1898.53 615.333 1917.2 620 1934.13C623.2 1945.33 627.467 1948.27 655.2 1958C663.733 1961.07 666.667 1964.13 666.667 1970.13C666.667 1973.6 665.6 1975.87 662.8 1978.8C655.867 1985.73 643.733 1983.47 632.533 1973.07C629.333 1970.13 626.4 1967.87 626.267 1968.13C626 1968.4 623.067 1973.33 619.733 1978.93L613.467 1989.2L618.4 1993.33C642.133 2012.8 680.4 2007.33 690.933 1982.8C694.4 1974.53 694.4 1959.47 690.8 1951.47C687.467 1943.87 681.467 1940 665.467 1934.8C649.067 1929.47 646.667 1927.87 646.667 1922C646.667 1911.87 659.2 1908.93 672.533 1915.87L679.867 1919.87L683.333 1912.4C689.333 1899.2 689.333 1899.2 680.533 1895.07C673.867 1892 670.533 1891.33 659.333 1891.07C651.733 1890.93 644.267 1891.33 642 1892.27Z" fill="#D8DDDF"/>
<path d="M948.667 1892.8C931.467 1898.93 921.733 1920.4 928.667 1936.93C932.533 1946.13 938.267 1950 958 1956.53C970.4 1960.53 971.067 1961.07 973.2 1964.93C976.933 1972.13 972.667 1980.53 964.667 1982.13C957.067 1983.47 951.2 1981.6 942.267 1974.8L933.867 1968.53L927.733 1978.53L921.467 1988.67L926.8 1993.6C935.2 2001.33 944.933 2004.53 960 2004.53C975.867 2004.53 984 2001.47 992.533 1991.87C1000.67 1982.8 1003.73 1967.73 1000 1954.8C997.333 1945.47 986.667 1938 969.867 1933.87C955.067 1930.13 949.467 1922.4 956.667 1915.33C959.067 1912.8 961.333 1912 966 1912C972.4 1912 980.4 1914.67 984.267 1918.13C986.533 1920.27 989.333 1919.73 989.333 1917.07C989.333 1916.27 990.933 1912.13 992.933 1907.73C996.267 1900.13 996.4 1899.87 993.867 1898C992.533 1896.93 987.733 1894.93 983.467 1893.33C974 1890.13 956.933 1889.87 948.667 1892.8Z" fill="#D8DDDF"/>
<path d="M1699.07 1893.2C1685.33 1897.87 1675.07 1907.47 1667.6 1922.67C1663.47 1930.93 1663.33 1932 1663.33 1947.33C1663.33 1962.53 1663.6 1963.73 1667.6 1972.27C1672.4 1982.4 1681.87 1993.33 1690.13 1998.13C1697.73 2002.53 1713.47 2005.73 1722.67 2004.8C1726.67 2004.27 1733.73 2002.67 1738.4 2001.2L1746.67 1998.4V1982.4V1966.4L1741.73 1970.67C1725.33 1985.07 1702 1980 1693.73 1960.4C1690.93 1953.47 1691.47 1940.4 1695.2 1932.67C1698.8 1924.93 1702.8 1920.93 1709.6 1918C1719.87 1913.87 1732.53 1916.4 1742.4 1924.53L1746.67 1928.27V1912.8C1746.67 1898.67 1746.4 1897.33 1743.87 1896C1733.33 1890.27 1711.33 1888.93 1699.07 1893.2Z" fill="#D8DDDF"/>
<path d="M282.667 1893.73C282.667 1894.13 273.067 1922.13 253.6 1978.4C247.867 1994.8 246.133 2001.73 247.2 2002.13C248.133 2002.53 254.533 2002.53 261.467 2002.4L274 2002L277.2 1992.27L280.4 1982.67H302.133H323.867L325.2 1987.6C325.867 1990.4 327.067 1994.8 327.733 1997.33L328.8 2002L343.067 2002.4C352.533 2002.67 357.333 2002.27 357.333 2001.33C357.333 1999.87 347.2 1969.73 329.733 1919.73L320.667 1893.33H301.733C291.2 1893.33 282.667 1893.47 282.667 1893.73ZM304.667 1918.67C305.2 1921.2 308.267 1931.6 311.467 1941.87C314.667 1952 317.067 1960.8 316.667 1961.33C315.867 1962.67 288.4 1963.07 287.6 1961.73C287.2 1961.07 290.267 1949.47 294.4 1935.73C298.533 1922 302.267 1911.47 302.8 1912.4C303.333 1913.2 304.133 1916.13 304.667 1918.67Z" fill="#D8DDDF"/>
<path d="M794 1894.67C793.067 1896.27 793.333 1994.27 794.4 1999.33C794.933 2002.67 795.2 2002.67 808.667 2002.67C820.533 2002.67 822.533 2002.4 822.933 2000.4C823.2 1999.2 823.2 1974.67 822.933 1945.73L822.667 1893.33H808.667C800.8 1893.33 794.4 1893.87 794 1894.67Z" fill="#D8DDDF"/>
<path d="M1092.27 1905.6L1092.67 1918L1102 1918.27C1107.2 1918.4 1112.4 1918.53 1113.6 1918.53C1115.73 1918.67 1116 1921.87 1116.27 1960.27L1116.67 2002H1131.33H1146L1146.67 1960L1147.33 1918H1158.67H1170L1170.4 1905.6L1170.8 1893.33H1131.33H1091.87L1092.27 1905.6Z" fill="#D8DDDF"/>
<path d="M1276.93 1919.73C1256.93 1977.07 1249.33 1999.73 1249.33 2001.2C1249.33 2003.33 1275.2 2003.2 1277.07 2001.07C1277.73 2000.13 1279.47 1995.6 1280.67 1990.93L1283.07 1982.67H1304.8H1326.53L1329.6 1992.27L1332.67 2002L1346.4 2002.4C1358.53 2002.67 1360 2002.53 1360 2000.53C1360 1999.2 1351.87 1974.53 1341.73 1945.73L1323.6 1893.33H1304.8H1286L1276.93 1919.73ZM1308 1920.27C1309.6 1925.6 1312.93 1936.8 1315.47 1945.07C1318 1953.33 1319.73 1960.67 1319.33 1961.33C1318.93 1962.13 1312.27 1962.67 1304.53 1962.67C1290.93 1962.67 1290.67 1962.67 1290.67 1959.6C1290.67 1957.87 1292.4 1951.47 1294.4 1945.2C1296.53 1939.07 1299.6 1928.8 1301.33 1922.27C1303.07 1915.87 1304.53 1910.67 1304.8 1910.67C1305.07 1910.67 1306.53 1915.07 1308 1920.27Z" fill="#D8DDDF"/>
<path d="M1453.6 1947.6L1454 2002H1468H1482L1481.87 1965.07V1928L1486.53 1936.8C1489.2 1941.47 1500.8 1958.4 1512.4 1974.13L1533.6 2002.8L1547.07 2002.4L1560.67 2002L1561.07 1947.6L1561.33 1893.33H1547.2H1533.2L1533.6 1930.53L1534 1967.73L1528.93 1958.27C1526.27 1952.93 1516.27 1938.27 1506.8 1925.6C1497.33 1912.93 1488.13 1900.4 1486.4 1898L1483.33 1893.33H1468.27H1453.33L1453.6 1947.6Z" fill="#D8DDDF"/>
<path d="M1845.33 1948V2002.67L1878.4 2002.4L1911.33 2002L1911.73 1990.4L1912.13 1978.8L1893.07 1978.4L1874 1978V1968.67V1959.33L1891.73 1958.93L1909.33 1958.53V1947.33V1936.13L1891.73 1935.73L1874 1935.33V1926V1916.67L1893.07 1916.27L1912 1915.87V1904.67V1893.33H1878.67H1845.33V1948Z" fill="#D8DDDF"/>
</svg>
