<svg width="24" height="25" viewBox="0 0 24 25" fill="none" xmlns="http://www.w3.org/2000/svg">
<g clip-path="url(#clip0_1209_178)">
<path d="M12 2.5C12.375 2.5 12.745 2.52 13.11 2.561C13.2405 2.57545 13.3669 2.61546 13.482 2.67876C13.5971 2.74206 13.6986 2.8274 13.7806 2.92992C13.8627 3.03243 13.9238 3.15011 13.9604 3.27624C13.997 3.40237 14.0084 3.53447 13.994 3.665C13.9796 3.79553 13.9395 3.92194 13.8762 4.03701C13.8129 4.15208 13.7276 4.25356 13.6251 4.33565C13.5226 4.41773 13.4049 4.47882 13.2788 4.51543C13.1526 4.55204 13.0205 4.56345 12.89 4.549C11.242 4.36464 9.57752 4.69694 8.12668 5.49992C6.67583 6.30291 5.51035 7.53689 4.79147 9.0312C4.07258 10.5255 3.8358 12.2063 4.11389 13.841C4.39198 15.4758 5.17119 16.9837 6.34374 18.1563C7.51629 19.3288 9.02423 20.108 10.659 20.3861C12.2937 20.6642 13.9745 20.4274 15.4688 19.7085C16.9631 18.9896 18.1971 17.8242 19.0001 16.3733C19.8031 14.9225 20.1354 13.258 19.951 11.61C19.9366 11.4795 19.948 11.3474 19.9846 11.2212C20.0212 11.0951 20.0823 10.9774 20.1644 10.8749C20.3301 10.6679 20.5714 10.5352 20.835 10.506C21.0986 10.4768 21.363 10.5536 21.5701 10.7194C21.6726 10.8014 21.7579 10.9029 21.8212 11.018C21.8845 11.1331 21.9246 11.2595 21.939 11.39C21.979 11.755 22 12.125 22 12.5C22 18.023 17.523 22.5 12 22.5C6.477 22.5 2 18.023 2 12.5C2 6.977 6.477 2.5 12 2.5ZM11.968 8.377C12.0339 8.63372 11.9952 8.90611 11.8604 9.13431C11.7256 9.3625 11.5057 9.52785 11.249 9.594C10.5439 9.77871 9.93004 10.2137 9.52204 10.8177C9.11404 11.4217 8.93975 12.1536 9.0317 12.8767C9.12365 13.5998 9.47555 14.2647 10.0217 14.7474C10.5679 15.2301 11.2711 15.4976 12 15.5C12.665 15.4997 13.3112 15.2786 13.837 14.8714C14.3627 14.4641 14.7384 13.8938 14.905 13.25C14.9713 12.9931 15.1369 12.7731 15.3654 12.6384C15.594 12.5036 15.8666 12.4652 16.1235 12.5315C16.3804 12.5978 16.6004 12.7634 16.7351 12.9919C16.8699 13.2205 16.9083 13.4931 16.842 13.75C16.5352 14.9259 15.8108 15.95 14.8042 16.6308C13.7975 17.3116 12.5774 17.6026 11.3718 17.4495C10.1662 17.2964 9.05754 16.7096 8.25301 15.7987C7.44848 14.8879 7.00307 13.7153 7 12.5C7.00017 11.3915 7.36857 10.3144 8.04734 9.438C8.7261 8.56158 9.67676 7.93546 10.75 7.658C10.8772 7.62522 11.0096 7.61781 11.1396 7.63621C11.2697 7.6546 11.3948 7.69843 11.5079 7.7652C11.621 7.83197 11.7199 7.92036 11.7988 8.02534C11.8778 8.13031 11.9353 8.24981 11.968 8.377ZM18.504 2.627C18.6865 2.70268 18.8425 2.83074 18.9524 2.99501C19.0622 3.15928 19.1209 3.3524 19.121 3.55V5.38H20.95C21.1478 5.38004 21.341 5.43871 21.5055 5.5486C21.6699 5.65848 21.798 5.81465 21.8737 5.99735C21.9493 6.18005 21.9692 6.38108 21.9306 6.57503C21.892 6.76898 21.7968 6.94715 21.657 7.087L18.12 10.62C17.9325 10.8075 17.6782 10.9129 17.413 10.913H15L13.172 12.742C12.9844 12.9296 12.7299 13.0351 12.4645 13.0351C12.1991 13.0351 11.9446 12.9296 11.757 12.742C11.5694 12.5544 11.4639 12.2999 11.4639 12.0345C11.4639 11.7691 11.5694 11.5146 11.757 11.327L13.586 9.5V7.086C13.5861 6.82081 13.6915 6.56649 13.879 6.379L17.414 2.843C17.5538 2.70307 17.7321 2.60776 17.9261 2.56913C18.1201 2.5305 18.3212 2.5503 18.504 2.626V2.627ZM17.121 5.964L15.586 7.5V8.914H17L18.536 7.379H18.121C17.8558 7.379 17.6014 7.27364 17.4139 7.08611C17.2264 6.89857 17.121 6.64422 17.121 6.379V5.964Z" fill="#707070"/>
</g>
<defs>
<clipPath id="clip0_1209_178">
<rect width="24" height="24" fill="white" transform="translate(0 0.5)"/>
</clipPath>
</defs>
</svg>
