<svg width="24" height="25" viewBox="0 0 24 25" fill="none" xmlns="http://www.w3.org/2000/svg">
<g clip-path="url(#clip0_986_12548)">
<path fill-rule="evenodd" clip-rule="evenodd" d="M12.7069 16.207C12.5193 16.3944 12.265 16.4998 11.9999 16.4998C11.7347 16.4998 11.4804 16.3944 11.2929 16.207L5.63585 10.55C5.54034 10.4577 5.46416 10.3474 5.41175 10.2254C5.35934 10.1034 5.33176 9.97216 5.3306 9.83938C5.32945 9.7066 5.35475 9.57492 5.40503 9.45202C5.45531 9.32913 5.52957 9.21747 5.62346 9.12358C5.71735 9.02969 5.829 8.95544 5.9519 8.90515C6.0748 8.85487 6.20648 8.82957 6.33926 8.83073C6.47204 8.83188 6.60325 8.85947 6.72526 8.91188C6.84726 8.96428 6.95761 9.04047 7.04985 9.13598L11.9999 14.086L16.9499 9.13598C17.1385 8.95382 17.3911 8.85302 17.6533 8.8553C17.9155 8.85758 18.1663 8.96275 18.3517 9.14816C18.5371 9.33357 18.6423 9.58438 18.6445 9.84658C18.6468 10.1088 18.546 10.3614 18.3639 10.55L12.7069 16.207Z" fill="#4D4D4D"/>
</g>
<defs>
<clipPath id="clip0_986_12548">
<rect width="24" height="24" fill="white" transform="translate(0 0.5)"/>
</clipPath>
</defs>
</svg>
