<svg width="24" height="25" viewBox="0 0 24 25" fill="none" xmlns="http://www.w3.org/2000/svg">
<g clip-path="url(#clip0_1209_298)">
<path fill-rule="evenodd" clip-rule="evenodd" d="M12.7071 8.79302C12.5196 8.60555 12.2653 8.50024 12.0001 8.50024C11.7349 8.50024 11.4806 8.60555 11.2931 8.79302L5.6361 14.45C5.54059 14.5423 5.46441 14.6526 5.412 14.7746C5.35959 14.8966 5.332 15.0278 5.33085 15.1606C5.32969 15.2934 5.355 15.4251 5.40528 15.548C5.45556 15.6709 5.52981 15.7825 5.6237 15.8764C5.7176 15.9703 5.82925 16.0446 5.95214 16.0948C6.07504 16.1451 6.20672 16.1704 6.3395 16.1693C6.47228 16.1681 6.6035 16.1405 6.7255 16.0881C6.84751 16.0357 6.95785 15.9595 7.0501 15.864L12.0001 10.914L16.9501 15.864C17.1387 16.0462 17.3913 16.147 17.6535 16.1447C17.9157 16.1424 18.1665 16.0373 18.3519 15.8518C18.5373 15.6664 18.6425 15.4156 18.6448 15.1534C18.6471 14.8912 18.5463 14.6386 18.3641 14.45L12.7071 8.79302Z" fill="#E05A8A"/>
</g>
<defs>
<clipPath id="clip0_1209_298">
<rect width="24" height="24" fill="white" transform="matrix(1 0 0 -1 0 24.5)"/>
</clipPath>
</defs>
</svg>
