<svg width="24" height="25" viewBox="0 0 24 25" fill="none" xmlns="http://www.w3.org/2000/svg">
<path d="M22 5.5C22 3.846 20.654 2.5 19 2.5H5C3.346 2.5 2 3.846 2 5.5V8.331C2 9.384 2.382 10.341 3 11.077V19.5C3 20.603 3.897 21.5 5 21.5H19C20.103 21.5 21 20.603 21 19.5V11.076C21.618 10.341 22 9.384 22 8.33V5.5ZM20 5.5V8.331C20 9.471 19.151 10.443 18.109 10.498L18 10.5C16.897 10.5 16 9.603 16 8.5V4.5H19C19.552 4.5 20 4.949 20 5.5ZM10 4.5H14V8.5C14 9.603 13.103 10.5 12 10.5C10.897 10.5 10 9.603 10 8.5V4.5ZM4 5.5C4 4.949 4.448 4.5 5 4.5H8V8.5C8 9.603 7.103 10.5 6 10.5L5.891 10.497C4.849 10.443 4 9.471 4 8.331V5.5ZM10 19.5V16.5H14V19.5H10ZM16 19.5V16.5C16 15.397 15.103 14.5 14 14.5H10C8.897 14.5 8 15.397 8 16.5V19.5H5V12.369C5.254 12.436 5.517 12.48 5.787 12.494C6.38989 12.5267 6.99233 12.4221 7.54891 12.1881C8.10548 11.9541 8.60165 11.5967 9 11.143C9.733 11.975 10.807 12.5 12 12.5C13.193 12.5 14.267 11.975 15 11.143C15.3983 11.5967 15.8945 11.9541 16.4511 12.1881C17.0077 12.4221 17.6101 12.5267 18.213 12.494C18.484 12.48 18.746 12.436 19 12.369V19.5H16Z" fill="#707070"/>
</svg>
