<svg width="24" height="25" viewBox="0 0 24 25" fill="none" xmlns="http://www.w3.org/2000/svg">
<path d="M6 8.5C6 7.96957 6.21071 7.46086 6.58579 7.08579C6.96086 6.71071 7.46957 6.5 8 6.5C8.53043 6.5 9.03914 6.71071 9.41421 7.08579C9.78929 7.46086 10 7.96957 10 8.5C10 9.03043 9.78929 9.53914 9.41421 9.91421C9.03914 10.2893 8.53043 10.5 8 10.5C7.46957 10.5 6.96086 10.2893 6.58579 9.91421C6.21071 9.53914 6 9.03043 6 8.5ZM8 4.5C6.93913 4.5 5.92172 4.92143 5.17157 5.67157C4.42143 6.42172 4 7.43913 4 8.5C4 9.56087 4.42143 10.5783 5.17157 11.3284C5.92172 12.0786 6.93913 12.5 8 12.5C9.06087 12.5 10.0783 12.0786 10.8284 11.3284C11.5786 10.5783 12 9.56087 12 8.5C12 7.43913 11.5786 6.42172 10.8284 5.67157C10.0783 4.92143 9.06087 4.5 8 4.5ZM16 9.5C16 9.23478 16.1054 8.98043 16.2929 8.79289C16.4804 8.60536 16.7348 8.5 17 8.5C17.2652 8.5 17.5196 8.60536 17.7071 8.79289C17.8946 8.98043 18 9.23478 18 9.5C18 9.76522 17.8946 10.0196 17.7071 10.2071C17.5196 10.3946 17.2652 10.5 17 10.5C16.7348 10.5 16.4804 10.3946 16.2929 10.2071C16.1054 10.0196 16 9.76522 16 9.5ZM17 6.5C16.2044 6.5 15.4413 6.81607 14.8787 7.37868C14.3161 7.94129 14 8.70435 14 9.5C14 10.2956 14.3161 11.0587 14.8787 11.6213C15.4413 12.1839 16.2044 12.5 17 12.5C17.7956 12.5 18.5587 12.1839 19.1213 11.6213C19.6839 11.0587 20 10.2956 20 9.5C20 8.70435 19.6839 7.94129 19.1213 7.37868C18.5587 6.81607 17.7956 6.5 17 6.5ZM2 17C2 15.62 3.12 14.5 4.5 14.5H11.5C12.88 14.5 14 15.62 14 17V17.096C13.9985 17.1689 13.9931 17.2417 13.984 17.314C13.9664 17.4893 13.9363 17.663 13.894 17.834C13.7599 18.3875 13.5187 18.9093 13.184 19.37C12.336 20.536 10.756 21.5 8 21.5C5.244 21.5 3.664 20.536 2.816 19.37C2.37749 18.7646 2.102 18.0566 2.016 17.314C2.00796 17.2409 2.00263 17.1675 2 17.094V17ZM4 17.052C4.00829 17.1572 4.02501 17.2615 4.05 17.364C4.104 17.59 4.214 17.892 4.434 18.194C4.834 18.746 5.754 19.5 8 19.5C10.244 19.5 11.164 18.746 11.566 18.194C11.8081 17.8586 11.9577 17.4655 12 17.054V17C12 16.8674 11.9473 16.7402 11.8536 16.6464C11.7598 16.5527 11.6326 16.5 11.5 16.5H4.5C4.36739 16.5 4.24021 16.5527 4.14645 16.6464C4.05268 16.7402 4 16.8674 4 17V17.052ZM16.998 20.5C16.3703 20.5062 15.7441 20.4391 15.132 20.3C15.4977 19.7227 15.7571 19.0847 15.898 18.416C16.208 18.468 16.572 18.5 16.998 18.5C18.778 18.5 19.454 17.956 19.718 17.626C19.8648 17.4433 19.9613 17.2254 19.998 16.994V16.984C19.9938 16.8542 19.9393 16.7311 19.846 16.6407C19.7527 16.5504 19.6279 16.4999 19.498 16.5H15.972C15.8931 15.7843 15.6427 15.0982 15.242 14.5H19.5C20.88 14.5 22 15.62 22 17V17.034C21.9983 17.0962 21.9936 17.1583 21.986 17.22C21.9066 17.8252 21.6631 18.3972 21.282 18.874C20.544 19.794 19.222 20.5 17 20.5H16.998Z" fill="#707070"/>
</svg>
