<svg width="24" height="24" viewBox="0 0 24 24" fill="none" xmlns="http://www.w3.org/2000/svg">
<path fill-rule="evenodd" clip-rule="evenodd" d="M7.49608 5.23802C9.17036 4.12329 11.1986 3.66925 13.1884 3.96375C15.1781 4.25825 16.9879 5.28037 18.2675 6.8323C19.5471 8.38423 20.2055 10.3556 20.1154 12.3651C20.0252 14.3745 19.1929 16.279 17.7795 17.7101C17.6095 17.8879 17.5162 18.1254 17.5197 18.3714C17.5232 18.6173 17.6232 18.8521 17.7983 19.025C17.9733 19.1978 18.2092 19.295 18.4552 19.2955C18.7012 19.296 18.9375 19.1998 19.1132 19.0276C20.4996 17.6243 21.4399 15.8424 21.816 13.906C22.192 11.9695 21.987 9.96517 21.2266 8.14502C20.4662 6.32487 19.1844 4.77028 17.5426 3.67685C15.9008 2.58342 13.9723 2 11.9997 2C10.0271 2 8.09856 2.58342 6.45675 3.67685C4.81494 4.77028 3.5332 6.32487 2.77281 8.14502C2.01242 9.96517 1.80734 11.9695 2.18339 13.906C2.55943 15.8424 3.4998 17.6243 4.88616 19.0276C4.97213 19.1175 5.07513 19.1894 5.18916 19.2391C5.3032 19.2888 5.42598 19.3153 5.55036 19.3171C5.67474 19.3188 5.79823 19.2959 5.91364 19.2494C6.02904 19.203 6.13405 19.1341 6.22255 19.0466C6.31104 18.9592 6.38126 18.8551 6.4291 18.7402C6.47694 18.6254 6.50145 18.5022 6.5012 18.3778C6.50095 18.2534 6.47595 18.1303 6.42765 18.0157C6.37935 17.9011 6.30872 17.7972 6.21987 17.7101C5.3778 16.8577 4.73469 15.8296 4.33662 14.6995C3.93854 13.5693 3.79536 12.3651 3.91733 11.1732C4.0393 9.9812 4.4234 8.83096 5.04211 7.80486C5.66082 6.77877 6.49882 5.90222 7.49608 5.23802ZM11.9997 7.62545C12.861 7.62557 13.7032 7.87994 14.4205 8.35669C15.1379 8.83343 15.6986 9.51133 16.0323 10.3054C16.366 11.0995 16.4579 11.9744 16.2964 12.8205C16.1349 13.6665 15.7273 14.4461 15.1246 15.0615C15.0384 15.1494 14.9704 15.2535 14.9245 15.3678C14.8785 15.4821 14.8555 15.6043 14.8568 15.7274C14.8581 15.8506 14.8836 15.9723 14.9319 16.0855C14.9802 16.1988 15.0504 16.3015 15.1383 16.3877C15.2263 16.4738 15.3304 16.5418 15.4447 16.5878C15.5589 16.6337 15.6811 16.6567 15.8043 16.6555C15.9274 16.6542 16.0491 16.6287 16.1624 16.5804C16.2757 16.532 16.3784 16.4619 16.4645 16.3739C17.3256 15.4948 17.908 14.381 18.1387 13.1723C18.3694 11.9635 18.2381 10.7135 17.7613 9.5791C17.2845 8.44465 16.4834 7.47621 15.4584 6.7952C14.4335 6.11418 13.2303 5.7509 11.9997 5.7509C10.7691 5.7509 9.56592 6.11418 8.54096 6.7952C7.51601 7.47621 6.71491 8.44465 6.2381 9.5791C5.76129 10.7135 5.63 11.9635 5.86068 13.1723C6.09136 14.381 6.67375 15.4948 7.53483 16.3739C7.70956 16.5477 7.94568 16.6457 8.1921 16.6467C8.43853 16.6477 8.67544 16.5516 8.85157 16.3793C9.0277 16.2069 9.12888 15.9721 9.13323 15.7257C9.13757 15.4794 9.04473 15.2412 8.87479 15.0627C8.27167 14.4474 7.86367 13.6677 7.70195 12.8214C7.54024 11.9752 7.63201 11.1 7.96576 10.3056C8.29951 9.51132 8.86038 8.83323 9.57801 8.35642C10.2956 7.87961 11.1381 7.62532 11.9997 7.62545ZM14.4996 12.0003C14.4996 12.6633 14.2362 13.2992 13.7674 13.768C13.2986 14.2368 12.6627 14.5002 11.9997 14.5002C11.3367 14.5002 10.7008 14.2368 10.232 13.768C9.76315 13.2992 9.49977 12.6633 9.49977 12.0003C9.49977 11.3373 9.76315 10.7014 10.232 10.2326C10.7008 9.76377 11.3367 9.50039 11.9997 9.50039C12.6627 9.50039 13.2986 9.76377 13.7674 10.2326C14.2362 10.7014 14.4996 11.3373 14.4996 12.0003ZM12.9372 17.3126C12.9372 17.064 12.8384 16.8256 12.6626 16.6497C12.4868 16.4739 12.2483 16.3752 11.9997 16.3752C11.7511 16.3752 11.5126 16.4739 11.3368 16.6497C11.161 16.8256 11.0622 17.064 11.0622 17.3126V21.0625C11.0622 21.3112 11.161 21.5496 11.3368 21.7254C11.5126 21.9012 11.7511 22 11.9997 22C12.2483 22 12.4868 21.9012 12.6626 21.7254C12.8384 21.5496 12.9372 21.3112 12.9372 21.0625V17.3126Z" fill="#E05A8A"/>
</svg>
