<svg width="24" height="25" viewBox="0 0 24 25" fill="none" xmlns="http://www.w3.org/2000/svg">
<path fill-rule="evenodd" clip-rule="evenodd" d="M7.49608 5.73802C9.17036 4.62329 11.1986 4.16925 13.1884 4.46375C15.1781 4.75825 16.9879 5.78037 18.2675 7.3323C19.5471 8.88423 20.2055 10.8556 20.1154 12.8651C20.0252 14.8745 19.1929 16.779 17.7795 18.2101C17.6095 18.3879 17.5162 18.6254 17.5197 18.8714C17.5232 19.1173 17.6232 19.3521 17.7983 19.525C17.9733 19.6978 18.2092 19.795 18.4552 19.7955C18.7012 19.796 18.9375 19.6998 19.1132 19.5276C20.4996 18.1243 21.4399 16.3424 21.816 14.406C22.192 12.4695 21.987 10.4652 21.2266 8.64502C20.4662 6.82487 19.1844 5.27028 17.5426 4.17685C15.9008 3.08342 13.9723 2.5 11.9997 2.5C10.0271 2.5 8.09856 3.08342 6.45675 4.17685C4.81494 5.27028 3.5332 6.82487 2.77281 8.64502C2.01242 10.4652 1.80734 12.4695 2.18339 14.406C2.55943 16.3424 3.4998 18.1243 4.88616 19.5276C4.97213 19.6175 5.07513 19.6894 5.18916 19.7391C5.3032 19.7888 5.42598 19.8153 5.55036 19.8171C5.67474 19.8188 5.79823 19.7959 5.91364 19.7494C6.02904 19.703 6.13405 19.6341 6.22255 19.5466C6.31104 19.4592 6.38126 19.3551 6.4291 19.2402C6.47694 19.1254 6.50145 19.0022 6.5012 18.8778C6.50095 18.7534 6.47595 18.6303 6.42765 18.5157C6.37935 18.4011 6.30872 18.2972 6.21987 18.2101C5.3778 17.3577 4.73469 16.3296 4.33662 15.1995C3.93854 14.0693 3.79536 12.8651 3.91733 11.6732C4.0393 10.4812 4.4234 9.33096 5.04211 8.30486C5.66082 7.27877 6.49882 6.40222 7.49608 5.73802ZM11.9997 8.12545C12.861 8.12557 13.7032 8.37994 14.4205 8.85669C15.1379 9.33343 15.6986 10.0113 16.0323 10.8054C16.366 11.5995 16.4579 12.4744 16.2964 13.3205C16.1349 14.1665 15.7273 14.9461 15.1246 15.5615C15.0384 15.6494 14.9704 15.7535 14.9245 15.8678C14.8785 15.9821 14.8555 16.1043 14.8568 16.2274C14.8581 16.3506 14.8836 16.4723 14.9319 16.5855C14.9802 16.6988 15.0504 16.8015 15.1383 16.8877C15.2263 16.9738 15.3304 17.0418 15.4447 17.0878C15.5589 17.1337 15.6811 17.1567 15.8043 17.1555C15.9274 17.1542 16.0491 17.1287 16.1624 17.0804C16.2757 17.032 16.3784 16.9619 16.4645 16.8739C17.3256 15.9948 17.908 14.881 18.1387 13.6723C18.3694 12.4635 18.2381 11.2135 17.7613 10.0791C17.2845 8.94465 16.4834 7.97621 15.4584 7.2952C14.4335 6.61418 13.2303 6.2509 11.9997 6.2509C10.7691 6.2509 9.56592 6.61418 8.54096 7.2952C7.51601 7.97621 6.71491 8.94465 6.2381 10.0791C5.76129 11.2135 5.63 12.4635 5.86068 13.6723C6.09136 14.881 6.67375 15.9948 7.53483 16.8739C7.70956 17.0477 7.94568 17.1457 8.1921 17.1467C8.43853 17.1477 8.67544 17.0516 8.85157 16.8793C9.0277 16.7069 9.12888 16.4721 9.13323 16.2257C9.13757 15.9794 9.04473 15.7412 8.87479 15.5627C8.27167 14.9474 7.86367 14.1677 7.70195 13.3214C7.54024 12.4752 7.63201 11.6 7.96576 10.8056C8.29951 10.0113 8.86038 9.33323 9.57801 8.85642C10.2956 8.37961 11.1381 8.12532 11.9997 8.12545ZM14.4996 12.5003C14.4996 13.1633 14.2362 13.7992 13.7674 14.268C13.2986 14.7368 12.6627 15.0002 11.9997 15.0002C11.3367 15.0002 10.7008 14.7368 10.232 14.268C9.76315 13.7992 9.49977 13.1633 9.49977 12.5003C9.49977 11.8373 9.76315 11.2014 10.232 10.7326C10.7008 10.2638 11.3367 10.0004 11.9997 10.0004C12.6627 10.0004 13.2986 10.2638 13.7674 10.7326C14.2362 11.2014 14.4996 11.8373 14.4996 12.5003ZM12.9372 17.8126C12.9372 17.564 12.8384 17.3256 12.6626 17.1497C12.4868 16.9739 12.2483 16.8752 11.9997 16.8752C11.7511 16.8752 11.5126 16.9739 11.3368 17.1497C11.161 17.3256 11.0622 17.564 11.0622 17.8126V21.5625C11.0622 21.8112 11.161 22.0496 11.3368 22.2254C11.5126 22.4012 11.7511 22.5 11.9997 22.5C12.2483 22.5 12.4868 22.4012 12.6626 22.2254C12.8384 22.0496 12.9372 21.8112 12.9372 21.5625V17.8126Z" fill="#707070"/>
</svg>
