<svg width="24" height="25" viewBox="0 0 24 25" fill="none" xmlns="http://www.w3.org/2000/svg">
<path d="M3.0003 20.375L1.95405 19.9587C1.8793 20.1468 1.85667 20.3516 1.88856 20.5515C1.92046 20.7514 2.00568 20.939 2.13526 21.0945C2.26484 21.25 2.43397 21.3676 2.62483 21.435C2.81568 21.5024 3.02118 21.5171 3.21968 21.4775L3.0003 20.375ZM8.29455 19.322L8.8278 18.3309L8.47118 18.1396L8.07518 18.2184L8.29455 19.322ZM4.8273 15.7816L5.87355 16.1979L6.05693 15.7321L5.83643 15.2832L4.8273 15.7816ZM19.8753 12.5C19.8753 16.1517 16.6657 19.25 12.5291 19.25V21.5C17.7502 21.5 22.1253 17.5467 22.1253 12.5H19.8753ZM5.18393 12.5C5.18393 8.84825 8.39468 5.75 12.5302 5.75V3.5C7.30905 3.5 2.9328 7.45325 2.9328 12.5H5.18393ZM12.5302 5.75C16.6657 5.75 19.8753 8.84825 19.8753 12.5H22.1253C22.1253 7.45325 17.7513 3.5 12.5302 3.5V5.75ZM12.5291 19.25C11.1734 19.25 9.91118 18.9125 8.8278 18.3309L7.7613 20.312C9.22813 21.0965 10.8656 21.5047 12.5291 21.5V19.25ZM3.21968 21.4775L8.51393 20.4245L8.07518 18.2184L2.78093 19.2714L3.21968 21.4786V21.4775ZM5.83643 15.2832C5.40676 14.4183 5.18418 13.4657 5.18393 12.5H2.9328C2.9328 13.85 3.25005 15.1302 3.81705 16.28L5.83643 15.2832ZM3.78218 15.3654L1.95405 19.9599L4.0443 20.7901L5.8713 16.1967L3.78105 15.3654H3.78218Z" fill="#707070"/>
<path d="M8.625 13.625C9.24632 13.625 9.75 13.1213 9.75 12.5C9.75 11.8787 9.24632 11.375 8.625 11.375C8.00368 11.375 7.5 11.8787 7.5 12.5C7.5 13.1213 8.00368 13.625 8.625 13.625Z" fill="#707070"/>
<path d="M12.5625 13.625C13.1838 13.625 13.6875 13.1213 13.6875 12.5C13.6875 11.8787 13.1838 11.375 12.5625 11.375C11.9412 11.375 11.4375 11.8787 11.4375 12.5C11.4375 13.1213 11.9412 13.625 12.5625 13.625Z" fill="#707070"/>
<path d="M16.5 13.625C17.1213 13.625 17.625 13.1213 17.625 12.5C17.625 11.8787 17.1213 11.375 16.5 11.375C15.8787 11.375 15.375 11.8787 15.375 12.5C15.375 13.1213 15.8787 13.625 16.5 13.625Z" fill="#707070"/>
</svg>
