<svg width="24" height="24" viewBox="0 0 24 24" fill="none" xmlns="http://www.w3.org/2000/svg">
<path d="M3.0003 19.875L1.95405 19.4587C1.8793 19.6468 1.85667 19.8516 1.88856 20.0515C1.92046 20.2514 2.00568 20.439 2.13526 20.5945C2.26484 20.75 2.43397 20.8676 2.62483 20.935C2.81568 21.0024 3.02118 21.0171 3.21968 20.9775L3.0003 19.875ZM8.29455 18.822L8.8278 17.8309L8.47118 17.6396L8.07518 17.7184L8.29455 18.822ZM4.8273 15.2816L5.87355 15.6979L6.05693 15.2321L5.83643 14.7832L4.8273 15.2816ZM19.8753 12C19.8753 15.6517 16.6657 18.75 12.5291 18.75V21C17.7502 21 22.1253 17.0467 22.1253 12H19.8753ZM5.18393 12C5.18393 8.34825 8.39468 5.25 12.5302 5.25V3C7.30905 3 2.9328 6.95325 2.9328 12H5.18393ZM12.5302 5.25C16.6657 5.25 19.8753 8.34825 19.8753 12H22.1253C22.1253 6.95325 17.7513 3 12.5302 3V5.25ZM12.5291 18.75C11.1734 18.75 9.91118 18.4125 8.8278 17.8309L7.7613 19.812C9.22813 20.5965 10.8656 21.0047 12.5291 21V18.75ZM3.21968 20.9775L8.51393 19.9245L8.07518 17.7184L2.78093 18.7714L3.21968 20.9786V20.9775ZM5.83643 14.7832C5.40676 13.9183 5.18418 12.9657 5.18393 12H2.9328C2.9328 13.35 3.25005 14.6302 3.81705 15.78L5.83643 14.7832ZM3.78218 14.8654L1.95405 19.4599L4.0443 20.2901L5.8713 15.6967L3.78105 14.8654H3.78218Z" fill="#E05A8A"/>
<path d="M8.625 13.125C9.24632 13.125 9.75 12.6213 9.75 12C9.75 11.3787 9.24632 10.875 8.625 10.875C8.00368 10.875 7.5 11.3787 7.5 12C7.5 12.6213 8.00368 13.125 8.625 13.125Z" fill="#E05A8A"/>
<path d="M12.5625 13.125C13.1838 13.125 13.6875 12.6213 13.6875 12C13.6875 11.3787 13.1838 10.875 12.5625 10.875C11.9412 10.875 11.4375 11.3787 11.4375 12C11.4375 12.6213 11.9412 13.125 12.5625 13.125Z" fill="#E05A8A"/>
<path d="M16.5 13.125C17.1213 13.125 17.625 12.6213 17.625 12C17.625 11.3787 17.1213 10.875 16.5 10.875C15.8787 10.875 15.375 11.3787 15.375 12C15.375 12.6213 15.8787 13.125 16.5 13.125Z" fill="#E05A8A"/>
</svg>
