<svg width="24" height="25" viewBox="0 0 24 25" fill="none" xmlns="http://www.w3.org/2000/svg">
<circle cx="12" cy="12.5" r="10" stroke="#5A67E0" stroke-width="1.875"/>
<path d="M16.6747 16.1035C16.0722 15.046 15.1314 14.2221 14.0037 13.7643C14.5645 13.3437 14.9787 12.7573 15.1877 12.0882C15.3967 11.4192 15.3899 10.7013 15.1683 10.0363C14.9466 9.37125 14.5213 8.79285 13.9526 8.38299C13.384 7.97312 12.7008 7.75256 11.9998 7.75256C11.2988 7.75256 10.6156 7.97312 10.047 8.38299C9.4783 8.79285 9.05301 9.37125 8.83135 10.0363C8.60968 10.7013 8.60287 11.4192 8.81187 12.0882C9.02088 12.7573 9.43511 13.3437 9.99589 13.7643C8.86822 14.2221 7.92741 15.046 7.3249 16.1035C7.28756 16.1635 7.26268 16.2304 7.25173 16.3003C7.24078 16.3701 7.24398 16.4415 7.26114 16.51C7.27831 16.5786 7.30909 16.643 7.35165 16.6995C7.39421 16.7559 7.44768 16.8032 7.50889 16.8386C7.57011 16.874 7.6378 16.8967 7.70796 16.9053C7.77812 16.914 7.8493 16.9085 7.91729 16.8891C7.98527 16.8697 8.04867 16.8369 8.1037 16.7925C8.15873 16.7481 8.20428 16.6932 8.23764 16.6308C9.03393 15.2545 10.4402 14.4336 11.9998 14.4336C13.5594 14.4336 14.9657 15.2549 15.762 16.6308C15.8343 16.7471 15.9489 16.8307 16.0817 16.8639C16.2145 16.8971 16.355 16.8774 16.4736 16.809C16.5921 16.7405 16.6794 16.6286 16.7169 16.4969C16.7544 16.3653 16.7393 16.2242 16.6747 16.1035ZM9.71464 11.0937C9.71464 10.6418 9.84867 10.2 10.0998 9.82416C10.3509 9.44837 10.7078 9.15547 11.1253 8.98252C11.5429 8.80956 12.0023 8.7643 12.4456 8.85248C12.8889 8.94065 13.2961 9.15829 13.6156 9.47788C13.9352 9.79746 14.1529 10.2046 14.241 10.6479C14.3292 11.0912 14.284 11.5507 14.111 11.9682C13.9381 12.3858 13.6452 12.7427 13.2694 12.9938C12.8936 13.2449 12.4518 13.3789 11.9998 13.3789C11.394 13.3782 10.8131 13.1372 10.3847 12.7088C9.95632 12.2804 9.71534 11.6996 9.71464 11.0937Z" fill="#5A67E0" stroke="#5A67E0" stroke-width="0.625"/>
</svg>
