<svg width="24" height="25" viewBox="0 0 24 25" fill="none" xmlns="http://www.w3.org/2000/svg">
<circle cx="12" cy="12.5" r="10" stroke="#707070" stroke-width="1.875"/>
<path d="M16.6745 16.1036C16.0719 15.0461 15.1311 14.2222 14.0035 13.7643C14.5642 13.3438 14.9785 12.7574 15.1875 12.0883C15.3965 11.4192 15.3897 10.7013 15.168 10.0363C14.9463 9.37131 14.5211 8.79291 13.9524 8.38305C13.3837 7.97318 12.7005 7.75262 11.9996 7.75262C11.2986 7.75262 10.6154 7.97318 10.0467 8.38305C9.47805 8.79291 9.05277 9.37131 8.8311 10.0363C8.60943 10.7013 8.60262 11.4192 8.81163 12.0883C9.02064 12.7574 9.43487 13.3438 9.99565 13.7643C8.86798 14.2222 7.92716 15.0461 7.32465 16.1036C7.28732 16.1636 7.26244 16.2305 7.25148 16.3003C7.24053 16.3702 7.24373 16.4415 7.2609 16.5101C7.27806 16.5787 7.30884 16.6431 7.3514 16.6995C7.39396 16.756 7.44744 16.8033 7.50865 16.8387C7.56986 16.874 7.63756 16.8967 7.70772 16.9054C7.77787 16.9141 7.84906 16.9086 7.91704 16.8892C7.98503 16.8698 8.04842 16.837 8.10345 16.7926C8.15849 16.7482 8.20404 16.6932 8.2374 16.6309C9.03369 15.2545 10.4399 14.4336 11.9996 14.4336C13.5592 14.4336 14.9654 15.255 15.7617 16.6309C15.834 16.7471 15.9487 16.8307 16.0815 16.864C16.2143 16.8972 16.3548 16.8775 16.4733 16.809C16.5919 16.7405 16.6791 16.6286 16.7167 16.497C16.7542 16.3653 16.7391 16.2242 16.6745 16.1036ZM9.7144 11.0938C9.7144 10.6418 9.84842 10.2 10.0995 9.82422C10.3506 9.44843 10.7075 9.15554 11.1251 8.98258C11.5426 8.80962 12.0021 8.76437 12.4454 8.85254C12.8886 8.94071 13.2958 9.15835 13.6154 9.47794C13.935 9.79752 14.1526 10.2047 14.2408 10.648C14.329 11.0913 14.2837 11.5507 14.1108 11.9683C13.9378 12.3858 13.6449 12.7427 13.2691 12.9938C12.8933 13.2449 12.4515 13.3789 11.9996 13.3789C11.3937 13.3782 10.8129 13.1373 10.3845 12.7089C9.95608 12.2805 9.7151 11.6996 9.7144 11.0938Z" fill="#707070" stroke="#707070" stroke-width="0.625"/>
</svg>
