<svg width="30" height="30" viewBox="0 0 30 30" fill="none" xmlns="http://www.w3.org/2000/svg">
<path d="M16.6423 14.875L21.061 10.455C21.1804 10.3397 21.2756 10.2018 21.3412 10.0493C21.4067 9.89677 21.4411 9.73274 21.4426 9.56677C21.444 9.4008 21.4124 9.2362 21.3496 9.08258C21.2867 8.92896 21.1939 8.78939 21.0765 8.67202C20.9592 8.55466 20.8196 8.46184 20.666 8.39899C20.5123 8.33614 20.3477 8.30451 20.1818 8.30596C20.0158 8.3074 19.8518 8.34188 19.6993 8.40739C19.5468 8.4729 19.4088 8.56813 19.2935 8.68752L14.8735 13.1063L10.4548 8.68752C10.3395 8.56813 10.2015 8.4729 10.049 8.40739C9.89652 8.34188 9.7325 8.3074 9.56653 8.30596C9.40055 8.30451 9.23595 8.33614 9.08233 8.39899C8.92871 8.46184 8.78915 8.55466 8.67178 8.67202C8.55441 8.78939 8.4616 8.92896 8.39875 9.08258C8.3359 9.2362 8.30427 9.4008 8.30571 9.56677C8.30715 9.73274 8.34164 9.89677 8.40715 10.0493C8.47266 10.2018 8.56789 10.3397 8.68727 10.455L13.106 14.8738L8.68727 19.2938C8.56789 19.4091 8.47266 19.547 8.40715 19.6995C8.34164 19.852 8.30715 20.016 8.30571 20.182C8.30427 20.348 8.3359 20.5126 8.39875 20.6662C8.4616 20.8198 8.55441 20.9594 8.67178 21.0768C8.78915 21.1941 8.92871 21.2869 9.08233 21.3498C9.23595 21.4126 9.40055 21.4443 9.56653 21.4428C9.7325 21.4414 9.89652 21.4069 10.049 21.3414C10.2015 21.2759 10.3395 21.1807 10.4548 21.0613L14.8735 16.6425L19.2935 21.0613C19.4088 21.1807 19.5468 21.2759 19.6993 21.3414C19.8518 21.4069 20.0158 21.4414 20.1818 21.4428C20.3477 21.4443 20.5123 21.4126 20.666 21.3498C20.8196 21.2869 20.9592 21.1941 21.0765 21.0768C21.1939 20.9594 21.2867 20.8198 21.3496 20.6662C21.4124 20.5126 21.444 20.348 21.4426 20.182C21.4411 20.016 21.4067 19.852 21.3412 19.6995C21.2756 19.547 21.1804 19.4091 21.061 19.2938L16.6423 14.875Z" fill="#656565"/>
</svg>
