<svg width="24" height="25" viewBox="0 0 24 25" fill="none" xmlns="http://www.w3.org/2000/svg">
<path d="M13.8665 5.8033C13.8665 6.04858 13.8183 6.29148 13.7245 6.51812C13.6307 6.74476 13.4932 6.95071 13.3198 7.12421C13.1464 7.2977 12.9406 7.43535 12.714 7.52929C12.4874 7.62323 12.2445 7.67162 11.9993 7.6717C11.754 7.67178 11.5111 7.62354 11.2844 7.52975C11.0578 7.43596 10.8518 7.29844 10.6783 7.12505C10.5049 6.95167 10.3672 6.74581 10.2733 6.51923C10.1793 6.29265 10.1309 6.04978 10.1309 5.8045C10.1307 5.30913 10.3273 4.83398 10.6775 4.48359C11.0277 4.13319 11.5027 3.93626 11.9981 3.9361C12.4934 3.93594 12.9686 4.13257 13.319 4.48274C13.6694 4.83291 13.8663 5.30792 13.8665 5.8033Z" fill="#C4C4C4"/>
<path d="M11.999 14.0809C13.0303 14.0809 13.8662 13.2449 13.8662 12.2137C13.8662 11.1824 13.0303 10.3465 11.999 10.3465C10.9678 10.3465 10.1318 11.1824 10.1318 12.2137C10.1318 13.2449 10.9678 14.0809 11.999 14.0809Z" fill="#C4C4C4"/>
<path d="M11.999 20.4925C13.0303 20.4925 13.8662 19.6565 13.8662 18.6253C13.8662 17.5941 13.0303 16.7581 11.999 16.7581C10.9678 16.7581 10.1318 17.5941 10.1318 18.6253C10.1318 19.6565 10.9678 20.4925 11.999 20.4925Z" fill="#C4C4C4"/>
</svg>
